<svg xmlns="http://www.w3.org/2000/svg" viewBox="0 0 500 500">
  <circle cx="250" cy="250" r="240" fill="#c9e9f6" />
  <g fill="#1a3a3a">
    <path d="M250 100 C 180 100, 150 150, 150 250 C 150 350, 180 400, 250 400 C 320 400, 350 350, 350 250 C 350 150, 320 100, 250 100 Z" stroke="#1a3a3a" stroke-width="10" fill="none" />
    <ellipse cx="250" cy="120" rx="50" ry="10" />
    <path d="M200 150 L 300 150" stroke="#1a3a3a" stroke-width="10" />
    <path d="M250 200 L 230 180 L 210 200 L 230 220 Z" />
    <path d="M280 220 L 260 200 L 240 220 L 260 240 Z" />
    <path d="M230 260 L 210 240 L 190 260 L 210 280 Z" />
    <path d="M270 280 L 250 260 L 230 280 L 250 300 Z" />
    <path d="M310 260 L 290 240 L 270 260 L 290 280 Z" />
    <path d="M250 330 C 220 330, 200 340, 200 350 C 200 360, 220 370, 250 370 C 280 370, 300 360, 300 350 C 300 340, 280 330, 250 330 Z" />
  </g>
  <line x1="150" y1="400" x2="350" y2="400" stroke="#1a3a3a" stroke-width="10" />
</svg>
